<svg width="29" height="22" viewBox="0 0 29 22" fill="none" xmlns="http://www.w3.org/2000/svg">
<circle opacity="0.6" cx="10" cy="6" r="5" fill="rgba(66, 74, 157, 1)"/>
<circle opacity="0.6" cx="23" cy="3" r="3" fill="rgba(66, 74, 157, 1)"/>
<path opacity="0.6" d="M20 17C20 19.7614 15.5228 22 10 22C4.47715 22 0 19.7614 0 17C0 14.2386 4.47715 12 10 12C15.5228 12 20 14.2386 20 17Z" fill="rgba(66, 74, 157, 1)"/>
<path opacity="0.6" d="M29 10C29 11.6569 26.3137 13 23 13C19.6863 13 17 11.6569 17 10C17 8.34315 19.6863 7 23 7C26.3137 7 29 8.34315 29 10Z" fill="rgba(66, 74, 157, 1)"/>
</svg>
