<svg width="142" height="66" viewBox="0 0 142 66" fill="none" xmlns="http://www.w3.org/2000/svg">
<mask id="mask0_710_605" style="mask-type:alpha" maskUnits="userSpaceOnUse" x="14" y="0" width="111" height="20">
<rect x="14" width="111" height="20" fill="#D9D9D9"/>
</mask>
<g mask="url(#mask0_710_605)">
<path d="M14.7 62.92V46.96H19.74C24.6867 39.0733 27.16 27.2667 27.16 11.54V3H59.22V46.96H65.59L64.75 62.92H60.13V52H20.37L19.39 62.92H14.7ZM25.97 46.96H53.69V8.04H32.48V14.41C32.48 20.85 31.8967 27.0567 30.73 33.03C29.5633 39.0033 27.9767 43.6467 25.97 46.96ZM80.7034 52V3H86.2334V43.67L115.493 3H120.743V52H115.283V11.33L86.0934 52H80.7034Z" fill="white"/>
</g>
<mask id="mask1_710_605" style="mask-type:alpha" maskUnits="userSpaceOnUse" x="14" y="39" width="111" height="27">
<rect x="14" y="39" width="111" height="27" fill="#D9D9D9"/>
</mask>
<g mask="url(#mask1_710_605)">
<path d="M14.7 65.6618V49.7018H19.74C24.6867 41.8151 27.16 30.0084 27.16 14.2818V5.74176H59.22V49.7018H65.59L64.75 65.6618H60.13V54.7418H20.37L19.39 65.6618H14.7ZM25.97 49.7018H53.69V10.7818H32.48V17.1518C32.48 23.5918 31.8967 29.7984 30.73 35.7718C29.5633 41.7451 27.9767 46.3884 25.97 49.7018ZM80.7034 54.7418V5.74176H86.2334V46.4118L115.493 5.74176H120.743V54.7418H115.283V14.0718L86.0934 54.7418H80.7034Z" fill="white"/>
</g>
<path d="M15.224 36.304V33.296H16.296C17.096 31.984 17.496 30.0747 17.496 27.568V25.84H22.968V33.296H24.28L24.12 36.304H23.48V34H16.04L15.88 36.304H15.224ZM17.16 33.296H22.184V26.544H18.248V28.016C18.248 29.0827 18.1467 30.0907 17.944 31.04C17.752 31.9893 17.4907 32.7413 17.16 33.296ZM29.4536 34.192C28.355 34.192 27.411 33.792 26.6216 32.992C25.843 32.192 25.4536 31.1627 25.4536 29.904C25.4536 28.7093 25.8216 27.7013 26.5576 26.88C27.3043 26.0587 28.227 25.648 29.3256 25.648C30.4456 25.648 31.347 26.0533 32.0296 26.864C32.723 27.6747 33.0696 28.6933 33.0696 29.92C33.0696 30.048 33.0643 30.1547 33.0536 30.24H26.2856C26.3603 31.2213 26.7016 32.0053 27.3096 32.592C27.9283 33.168 28.6536 33.456 29.4856 33.456C30.5523 33.456 31.4856 33.0293 32.2856 32.176L32.8296 32.656C31.8803 33.68 30.755 34.192 29.4536 34.192ZM26.2856 29.536H32.2216C32.1576 28.64 31.875 27.888 31.3736 27.28C30.8723 26.672 30.179 26.368 29.2936 26.368C28.4936 26.368 27.811 26.672 27.2456 27.28C26.6803 27.8773 26.3603 28.6293 26.2856 29.536ZM34.5894 34.128C34.2907 34.128 33.992 34.0853 33.6934 34L33.8374 33.28C34.104 33.3547 34.312 33.392 34.4614 33.392C34.6747 33.392 34.8454 33.3707 34.9734 33.328C35.112 33.2747 35.2614 33.1733 35.4214 33.024C35.5814 32.8747 35.7094 32.64 35.8054 32.32C35.9014 32 35.992 31.584 36.0774 31.072C36.1734 30.56 36.2427 29.904 36.2854 29.104C36.328 28.304 36.3494 27.36 36.3494 26.272V25.84H41.9014V34H41.1174V26.544H37.1014V26.768C37.1014 28.0907 37.0587 29.2107 36.9734 30.128C36.888 31.0453 36.7814 31.7653 36.6534 32.288C36.5254 32.8 36.344 33.2 36.1094 33.488C35.8747 33.7653 35.6454 33.9413 35.4214 34.016C35.208 34.0907 34.9307 34.128 34.5894 34.128ZM51.251 32.928C50.451 33.7707 49.4537 34.192 48.259 34.192C47.0643 34.192 46.067 33.776 45.267 32.944C44.4777 32.1013 44.083 31.0933 44.083 29.92C44.083 28.7573 44.483 27.7547 45.283 26.912C46.0937 26.0693 47.0963 25.648 48.291 25.648C49.4857 25.648 50.4777 26.0693 51.267 26.912C52.067 27.744 52.467 28.7467 52.467 29.92C52.467 31.0827 52.0617 32.0853 51.251 32.928ZM48.291 33.456C49.1977 33.456 49.9763 33.1093 50.627 32.416C51.2883 31.7227 51.619 30.8907 51.619 29.92C51.619 28.9387 51.2883 28.1067 50.627 27.424C49.9763 26.7307 49.187 26.384 48.259 26.384C47.3417 26.384 46.5577 26.7307 45.907 27.424C45.2563 28.1067 44.931 28.9387 44.931 29.92C44.931 30.9013 45.2563 31.7387 45.907 32.432C46.5577 33.1147 47.3523 33.456 48.291 33.456ZM54.6374 34V25.84H58.3654C59.1654 25.84 59.8054 26.0267 60.2854 26.4C60.7654 26.7627 61.0054 27.2533 61.0054 27.872C61.0054 28.736 60.5467 29.36 59.6294 29.744C60.1734 29.8827 60.616 30.1227 60.9574 30.464C61.2987 30.8053 61.4694 31.2427 61.4694 31.776C61.4694 32.448 61.2027 32.9867 60.6694 33.392C60.136 33.7973 59.4267 34 58.5414 34H54.6374ZM55.4214 33.296H58.4454C59.128 33.296 59.6667 33.152 60.0614 32.864C60.456 32.5653 60.6534 32.1653 60.6534 31.664C60.6534 31.184 60.4454 30.8107 60.0294 30.544C59.624 30.2773 59.032 30.144 58.2534 30.144H55.4214V33.296ZM55.4214 29.488H58.2534C58.84 29.488 59.3094 29.3547 59.6614 29.088C60.024 28.8107 60.2054 28.4213 60.2054 27.92C60.2054 27.504 60.04 27.1733 59.7094 26.928C59.3787 26.672 58.9094 26.544 58.3014 26.544H55.4214V29.488ZM63.6786 34V25.84H64.4626V28.976H66.8946C67.8013 28.976 68.548 29.1787 69.1346 29.584C69.7213 29.9787 70.0146 30.576 70.0146 31.376C70.0146 32.1653 69.7426 32.8 69.1986 33.28C68.6546 33.76 67.9346 34 67.0386 34H63.6786ZM64.4626 33.296H66.9106C67.604 33.296 68.1533 33.1307 68.5586 32.8C68.964 32.4693 69.1666 32.0053 69.1666 31.408C69.1666 30.864 68.9586 30.4427 68.5426 30.144C68.1266 29.8347 67.5613 29.68 66.8466 29.68H64.4626V33.296ZM71.6466 34V25.84H72.4306V34H71.6466ZM78.613 34.192C77.5143 34.192 76.5703 33.792 75.781 32.992C75.0023 32.192 74.613 31.1627 74.613 29.904C74.613 28.7093 74.981 27.7013 75.717 26.88C76.4637 26.0587 77.3863 25.648 78.485 25.648C79.605 25.648 80.5063 26.0533 81.189 26.864C81.8823 27.6747 82.229 28.6933 82.229 29.92C82.229 30.048 82.2237 30.1547 82.213 30.24H75.445C75.5197 31.2213 75.861 32.0053 76.469 32.592C77.0877 33.168 77.813 33.456 78.645 33.456C79.7117 33.456 80.645 33.0293 81.445 32.176L81.989 32.656C81.0397 33.68 79.9143 34.192 78.613 34.192ZM75.445 29.536H81.381C81.317 28.64 81.0343 27.888 80.533 27.28C80.0317 26.672 79.3383 26.368 78.453 26.368C77.653 26.368 76.9703 26.672 76.405 27.28C75.8397 27.8773 75.5197 28.6293 75.445 29.536ZM88.8336 34V25.84H89.6176V32.96L95.1536 25.84H95.9376V34H95.1536V26.88L89.6176 34H88.8336ZM98.6717 34V25.84H104.064V26.544H99.4557V34H98.6717ZM105.791 36.56V25.84H106.575V27.664C107.46 26.32 108.58 25.648 109.935 25.648C110.98 25.648 111.903 26.0427 112.703 26.832C113.503 27.6107 113.903 28.64 113.903 29.92C113.903 31.1893 113.503 32.2187 112.703 33.008C111.903 33.7973 110.98 34.192 109.935 34.192C108.548 34.192 107.428 33.5413 106.575 32.24V36.56H105.791ZM109.855 33.44C110.772 33.44 111.535 33.1253 112.143 32.496C112.751 31.856 113.055 30.9973 113.055 29.92C113.055 28.8747 112.74 28.0267 112.111 27.376C111.492 26.7253 110.74 26.4 109.855 26.4C108.97 26.4 108.191 26.736 107.519 27.408C106.858 28.0693 106.527 28.912 106.527 29.936C106.527 30.9493 106.858 31.7867 107.519 32.448C108.191 33.1093 108.97 33.44 109.855 33.44ZM116.114 34V25.84H116.898V28.976H119.33C120.236 28.976 120.983 29.1787 121.57 29.584C122.156 29.9787 122.45 30.576 122.45 31.376C122.45 32.1653 122.178 32.8 121.634 33.28C121.09 33.76 120.37 34 119.474 34H116.114ZM116.898 33.296H119.346C120.039 33.296 120.588 33.1307 120.994 32.8C121.399 32.4693 121.602 32.0053 121.602 31.408C121.602 30.864 121.394 30.4427 120.978 30.144C120.562 29.8347 119.996 29.68 119.282 29.68H116.898V33.296ZM124.082 34V25.84H124.866V34H124.082Z" fill="white"/>
</svg>
