<svg width="90" height="90" viewBox="0 0 90 90" fill="none" xmlns="http://www.w3.org/2000/svg">
<path opacity="0.6" d="M90 44.9848C89.9972 53.5399 87.559 61.9173 82.9707 69.1361C78.3825 76.3549 71.8342 82.1164 64.0924 85.7461C56.3506 89.3759 47.7356 90.7236 39.2561 89.6317C30.7766 88.5397 22.7834 85.0531 16.2123 79.5801L15.165 80.6281C14.398 81.3959 13.3576 81.8273 12.2727 81.8275C11.7349 81.8293 11.2022 81.7235 10.7059 81.5164C9.95854 81.2063 9.31984 80.6815 8.87056 80.0082C8.42128 79.3349 8.18159 78.5435 8.1818 77.7339V69.5466C8.1818 68.4609 8.6128 67.4197 9.38 66.652C10.1472 65.8843 11.1877 65.453 12.2727 65.453H20.4545C21.2635 65.4531 22.0543 65.6933 22.7269 66.1432C23.3994 66.593 23.9237 67.2323 24.2332 67.9802C24.5428 68.7281 24.6238 69.551 24.466 70.345C24.3082 71.139 23.9187 71.8683 23.3468 72.4408L22.0295 73.759C28.5493 78.9672 36.6434 81.8054 44.9859 81.8086C53.3284 81.8118 61.4247 78.9798 67.9484 73.7765C74.4722 68.5733 79.0366 61.3072 80.894 53.1687C82.7514 45.0302 81.7917 36.5017 78.172 28.9804C74.5523 21.459 68.4873 15.3907 60.9705 11.7696C53.4537 8.14852 44.9308 7.18924 36.7979 9.04896C28.6651 10.9087 21.4045 15.4771 16.2055 22.0059C11.0066 28.5347 8.17752 36.6367 8.1818 44.9848C8.18226 47.4593 8.42893 49.9277 8.91816 52.3533C9.13516 53.4173 8.92088 54.524 8.32247 55.4299C7.72406 56.3358 6.79053 56.9667 5.72725 57.1838C4.66397 57.401 3.55804 57.1865 2.65276 56.5877C1.74747 55.9889 1.11697 55.0548 0.899978 53.9908C-0.351121 47.8253 -0.297259 41.4659 1.05809 35.3226C2.41344 29.1792 5.04021 23.3883 8.76904 18.3229C12.4979 13.2576 17.246 9.0304 22.7075 5.91377C28.1689 2.79713 34.2223 0.860248 40.4776 0.227983C46.7328 -0.404283 53.0511 0.282098 59.025 2.24288C64.9989 4.20366 70.496 7.39533 75.1618 11.6121C79.8276 15.8289 83.5586 20.9773 86.1143 26.7253C88.67 32.4734 89.9937 38.6935 90 44.9848ZM45 16.3293C43.915 16.3293 42.8745 16.7606 42.1073 17.5283C41.3401 18.296 40.9091 19.3372 40.9091 20.4229V44.9848C40.9091 46.0705 41.3401 47.1117 42.1073 47.8794C42.8745 48.6471 43.915 49.0784 45 49.0784H65.4545C66.5395 49.0784 67.5801 48.6471 68.3473 47.8794C69.1144 47.1117 69.5454 46.0705 69.5454 44.9848C69.5454 43.8991 69.1144 42.8578 68.3473 42.0901C67.5801 41.3224 66.5395 40.8911 65.4545 40.8911H49.0909V20.4229C49.0909 19.3372 48.6599 18.296 47.8927 17.5283C47.1255 16.7606 46.085 16.3293 45 16.3293Z" fill="rgba(66, 74, 157, 1)"/>
</svg>
