<svg>
    <symbol id="back" width="17" height="30" viewBox="0 0 17 30" fill="none"
            xmlns="http://www.w3.org/2000/svg">
        <path d="M0.585786 13.5858C-0.195262 14.3668 -0.195262 15.6332 0.585786 16.4142L13.3137 29.1421C14.0948 29.9232 15.3611 29.9232 16.1421 29.1421C16.9232 28.3611 16.9232 27.0948 16.1421 26.3137L4.82843 15L16.1421 3.68629C16.9232 2.90524 16.9232 1.63891 16.1421 0.857864C15.3611 0.0768156 14.0948 0.0768156 13.3137 0.857864L0.585786 13.5858ZM4 13H2V17H4V13Z"
              fill="#6B53FF"/>
    </symbol>
    <symbol id="icon" width="257" height="257" viewBox="0 0 257 257" fill="none"
            xmlns="http://www.w3.org/2000/svg">
        <path d="M60 98.4375V166.129L122.769 205V137.625L60 98.4375ZM133.231 205L196 166.129V98.4375L133.231 137.625V205ZM190.769 89.5L128 51L65.2308 89.5L128 128L190.769 89.5Z"
              fill="white"/>
    </symbol>
</svg>
