<svg width="18" height="15" viewBox="0 0 18 15" fill="none" xmlns="http://www.w3.org/2000/svg">
<path d="M1.8 15C1.305 15 0.8814 14.8166 0.5292 14.4497C0.1764 14.0822 0 13.6406 0 13.125V1.875C0 1.35938 0.1764 0.918125 0.5292 0.55125C0.8814 0.18375 1.305 0 1.8 0H16.2C16.695 0 17.1189 0.18375 17.4717 0.55125C17.8239 0.918125 18 1.35938 18 1.875V13.125C18 13.6406 17.8239 14.0822 17.4717 14.4497C17.1189 14.8166 16.695 15 16.2 15H1.8ZM9 8.27344C9.075 8.27344 9.1536 8.26156 9.2358 8.23781C9.3186 8.21469 9.3975 8.17969 9.4725 8.13281L15.84 3.98438C15.96 3.90625 16.05 3.80875 16.11 3.69188C16.17 3.57438 16.2 3.44531 16.2 3.30469C16.2 2.99219 16.0725 2.75781 15.8175 2.60156C15.5625 2.44531 15.3 2.45313 15.03 2.625L9 6.5625L2.97 2.625C2.7 2.45313 2.4375 2.44906 2.1825 2.61281C1.9275 2.77719 1.8 3.00781 1.8 3.30469C1.8 3.46094 1.83 3.5975 1.89 3.71438C1.95 3.83187 2.04 3.92188 2.16 3.98438L8.5275 8.13281C8.6025 8.17969 8.6814 8.21469 8.7642 8.23781C8.8464 8.26156 8.925 8.27344 9 8.27344Z" fill="white"/>
</svg>
