<svg width="18" height="19" viewBox="0 0 18 19" fill="none" xmlns="http://www.w3.org/2000/svg">
<path fill-rule="evenodd" clip-rule="evenodd" d="M7.3242 0.116552C7.72732 -0.00723945 8.15313 -0.0328478 8.56764 0.0417715C8.98215 0.116391 9.37387 0.289171 9.71155 0.54632C10.0492 0.80347 10.3235 1.13787 10.5125 1.52282C10.7015 1.90777 10.7999 2.33262 10.8 2.76345V16.2366C10.7999 16.6674 10.7015 17.0922 10.5125 17.4772C10.3235 17.8621 10.0492 18.1965 9.71155 18.4537C9.37387 18.7108 8.98215 18.8836 8.56764 18.9582C8.15313 19.0328 7.72732 19.0072 7.3242 18.8834L1.9242 17.2251C1.36809 17.0543 0.880569 16.7046 0.533954 16.2278C0.187338 15.751 9.52103e-05 15.1725 0 14.5782V4.42179C9.52103e-05 3.82746 0.187338 3.24899 0.533954 2.77219C0.880569 2.29539 1.36809 1.94567 1.9242 1.77489L7.3242 0.116552ZM11.7 2.12959C11.7 1.88525 11.7948 1.65091 11.9636 1.47814C12.1324 1.30536 12.3613 1.20829 12.6 1.20829H15.3C16.0161 1.20829 16.7028 1.49949 17.2092 2.01782C17.7155 2.53615 18 3.23916 18 3.9722V4.8935C18 5.13784 17.9052 5.37218 17.7364 5.54495C17.5676 5.71773 17.3387 5.8148 17.1 5.8148C16.8613 5.8148 16.6324 5.71773 16.4636 5.54495C16.2948 5.37218 16.2 5.13784 16.2 4.8935V3.9722C16.2 3.72785 16.1052 3.49352 15.9364 3.32074C15.7676 3.14796 15.5387 3.05089 15.3 3.05089H12.6C12.3613 3.05089 12.1324 2.95383 11.9636 2.78105C11.7948 2.60827 11.7 2.37394 11.7 2.12959ZM17.1 13.1852C17.3387 13.1852 17.5676 13.2823 17.7364 13.455C17.9052 13.6278 18 13.8622 18 14.1065V15.0278C18 15.7608 17.7155 16.4638 17.2092 16.9822C16.7028 17.5005 16.0161 17.7917 15.3 17.7917H12.6C12.3613 17.7917 12.1324 17.6946 11.9636 17.5219C11.7948 17.3491 11.7 17.1147 11.7 16.8704C11.7 16.6261 11.7948 16.3917 11.9636 16.2189C12.1324 16.0462 12.3613 15.9491 12.6 15.9491H15.3C15.5387 15.9491 15.7676 15.852 15.9364 15.6793C16.1052 15.5065 16.2 15.2721 16.2 15.0278V14.1065C16.2 13.8622 16.2948 13.6278 16.4636 13.455C16.6324 13.2823 16.8613 13.1852 17.1 13.1852ZM6.3 8.5787C6.06131 8.5787 5.83239 8.67577 5.6636 8.84854C5.49482 9.02132 5.4 9.25566 5.4 9.5C5.4 9.74434 5.49482 9.97868 5.6636 10.1515C5.83239 10.3242 6.06131 10.4213 6.3 10.4213H6.3009C6.5396 10.4213 6.76851 10.3242 6.9373 10.1515C7.10608 9.97868 7.2009 9.74434 7.2009 9.5C7.2009 9.25566 7.10608 9.02132 6.9373 8.84854C6.76851 8.67577 6.5396 8.5787 6.3009 8.5787H6.3Z" fill="white"/>
</svg>
