<svg width="18" height="18" viewBox="0 0 18 18" fill="none" xmlns="http://www.w3.org/2000/svg">
<path d="M14.5946 10.2857C14.9254 10.2857 15.2465 10.32 15.5676 10.3629V7.71429C15.5676 7.25963 15.3625 6.82359 14.9976 6.5021C14.6327 6.18061 14.1377 6 13.6216 6H12.6486V4.28571C12.6486 1.92 10.4692 0 7.78378 0C5.09838 0 2.91892 1.92 2.91892 4.28571V6H1.94595C1.42985 6 0.93489 6.18061 0.569954 6.5021C0.205019 6.82359 0 7.25963 0 7.71429V16.2857C0 17.2371 0.865946 18 1.94595 18H9.54487C9.04865 17.2457 8.75676 16.3714 8.75676 15.4286C8.75676 12.5914 11.3741 10.2857 14.5946 10.2857ZM4.86486 4.28571C4.86486 2.86286 6.16865 1.71429 7.78378 1.71429C9.39892 1.71429 10.7027 2.86286 10.7027 4.28571V6H4.86486V4.28571ZM7.78378 13.7143C7.39891 13.7143 7.02268 13.6137 6.70267 13.4254C6.38267 13.237 6.13325 12.9693 5.98596 12.656C5.83868 12.3428 5.80014 11.9981 5.87523 11.6656C5.95031 11.333 6.13565 11.0276 6.40779 10.7878C6.67994 10.5481 7.02667 10.3848 7.40415 10.3187C7.78163 10.2525 8.17289 10.2865 8.52847 10.4162C8.88404 10.546 9.18796 10.7657 9.40178 11.0476C9.6156 11.3295 9.72973 11.6609 9.72973 12C9.72973 12.9514 8.86378 13.7143 7.78378 13.7143ZM18 13.9286L13.3784 18L10.7027 15.4286L11.8314 14.4343L13.3784 15.7971L16.8714 12.72L18 13.9286Z" fill="white"/>
</svg>
