<svg width="18" height="21" viewBox="0 0 18 21" fill="none" xmlns="http://www.w3.org/2000/svg">
<path d="M9 16C9.59674 16 10.169 15.7893 10.591 15.4142C11.0129 15.0391 11.25 14.5304 11.25 14C11.25 13.4696 11.0129 12.9609 10.591 12.5858C10.169 12.2107 9.59674 12 9 12C8.40326 12 7.83097 12.2107 7.40901 12.5858C6.98705 12.9609 6.75 13.4696 6.75 14C6.75 14.5304 6.98705 15.0391 7.40901 15.4142C7.83097 15.7893 8.40326 16 9 16ZM15.75 7C16.3467 7 16.919 7.21071 17.341 7.58579C17.7629 7.96086 18 8.46957 18 9V19C18 19.5304 17.7629 20.0391 17.341 20.4142C16.919 20.7893 16.3467 21 15.75 21H2.25C1.65326 21 1.08097 20.7893 0.65901 20.4142C0.237053 20.0391 0 19.5304 0 19V9C0 8.46957 0.237053 7.96086 0.65901 7.58579C1.08097 7.21071 1.65326 7 2.25 7H3.375V5C3.375 3.67392 3.96763 2.40215 5.02252 1.46447C6.07742 0.526784 7.50816 0 9 0C9.73869 0 10.4701 0.129329 11.1526 0.380602C11.8351 0.631876 12.4551 1.00017 12.9775 1.46447C13.4998 1.92876 13.9141 2.47995 14.1968 3.08658C14.4795 3.69321 14.625 4.34339 14.625 5V7H15.75ZM9 2C8.10489 2 7.24645 2.31607 6.61351 2.87868C5.98058 3.44129 5.625 4.20435 5.625 5V7H12.375V5C12.375 4.20435 12.0194 3.44129 11.3865 2.87868C10.7536 2.31607 9.89511 2 9 2Z" fill="white"/>
</svg>
