<svg width="20" height="17" viewBox="0 0 20 17" fill="none" xmlns="http://www.w3.org/2000/svg">
<path d="M7.32727 3.47385e-05C5.60909 -0.0084356 3.93636 1.53317 4.7 3.44746H1.81818C1.33597 3.44746 0.873508 3.62594 0.532533 3.94364C0.191558 4.26134 0 4.69223 0 5.14153V6.8356C0 7.06024 0.0957789 7.27569 0.266267 7.43454C0.436754 7.59339 0.667985 7.68263 0.909091 7.68263H9.09091V5.14153H10.9091V7.68263H19.0909C19.332 7.68263 19.5632 7.59339 19.7337 7.43454C19.9042 7.27569 20 7.06024 20 6.8356V5.14153C20 4.69223 19.8084 4.26134 19.4675 3.94364C19.1265 3.62594 18.664 3.44746 18.1818 3.44746H15.3C16.3636 0.677662 12.3636 -1.27899 10.5182 1.10965L10 1.75339L9.48182 1.09271C8.90909 0.338848 8.11818 0.00850507 7.32727 3.47385e-05ZM7.27273 1.75339C8.08182 1.75339 8.49091 2.66819 7.91818 3.20182C7.34545 3.73545 6.36364 3.35429 6.36364 2.60043C6.36364 2.37578 6.45942 2.16033 6.6299 2.00149C6.80039 1.84264 7.03162 1.75339 7.27273 1.75339ZM12.7273 1.75339C13.5364 1.75339 13.9455 2.66819 13.3727 3.20182C12.8 3.73545 11.8182 3.35429 11.8182 2.60043C11.8182 2.37578 11.914 2.16033 12.0844 2.00149C12.2549 1.84264 12.4862 1.75339 12.7273 1.75339ZM0.909091 8.52966V15.3059C0.909091 15.7552 1.10065 16.1861 1.44162 16.5038C1.7826 16.8215 2.24506 17 2.72727 17H17.2727C17.7549 17 18.2174 16.8215 18.5584 16.5038C18.8994 16.1861 19.0909 15.7552 19.0909 15.3059V8.52966H10.9091V15.3059H9.09091V8.52966H0.909091Z" fill="rgba(66, 74, 157, 1)"/>
</svg>
