<svg width="22" height="23" viewBox="0 0 22 23" fill="none" xmlns="http://www.w3.org/2000/svg">
<path d="M18.3849 22.0015H7.13543C6.17643 22.0015 5.25671 21.6206 4.5786 20.9425C3.90049 20.2644 3.51953 19.3446 3.51953 18.3856V7.13619C3.51953 6.17719 3.90049 5.25748 4.5786 4.57937C5.25671 3.90125 6.17643 3.52029 7.13543 3.52029H18.3849C19.3439 3.52029 20.2636 3.90125 20.9417 4.57937C21.6198 5.25748 22.0008 6.17719 22.0008 7.13619V18.3856C22.0008 19.3446 21.6198 20.2644 20.9417 20.9425C20.2636 21.6206 19.3439 22.0015 18.3849 22.0015Z" fill="rgba(66, 74, 157, 1)"/>
<path d="M6.19147 2.3218H17.6012C17.3604 1.64328 16.9156 1.05587 16.3277 0.640182C15.7398 0.224489 15.0378 0.000869228 14.3178 0H3.4827C2.55903 0 1.67319 0.366926 1.02006 1.02006C0.366926 1.67319 0 2.55903 0 3.4827V14.3178C0.000869228 15.0378 0.224489 15.7398 0.640182 16.3277C1.05587 16.9156 1.64328 17.3604 2.3218 17.6012V6.19147C2.3218 5.16517 2.7295 4.1809 3.4552 3.4552C4.1809 2.7295 5.16517 2.3218 6.19147 2.3218Z" fill="rgba(66, 74, 157, 1)"/>
</svg>
