<svg width="20" height="23" viewBox="0 0 20 23" fill="none" xmlns="http://www.w3.org/2000/svg">
<path fill-rule="evenodd" clip-rule="evenodd" d="M1.42857 20.8438V2.15625H1.07143C0.787268 2.15625 0.514746 2.04266 0.313814 1.84047C0.112882 1.63829 0 1.36406 0 1.07812C0 0.792188 0.112882 0.517963 0.313814 0.315775C0.514746 0.113588 0.787268 6.02566e-09 1.07143 0H18.9286C19.2127 6.02566e-09 19.4853 0.113588 19.6862 0.315775C19.8871 0.517963 20 0.792188 20 1.07812C20 1.36406 19.8871 1.63829 19.6862 1.84047C19.4853 2.04266 19.2127 2.15625 18.9286 2.15625H18.5714V20.8438H18.9286C19.2127 20.8438 19.4853 20.9573 19.6862 21.1595C19.8871 21.3617 20 21.6359 20 21.9219C20 22.2078 19.8871 22.482 19.6862 22.6842C19.4853 22.8864 19.2127 23 18.9286 23H13.9286C13.6444 23 13.3719 22.8864 13.171 22.6842C12.97 22.482 12.8571 22.2078 12.8571 21.9219V18.3281C12.8571 18.0422 12.7443 17.768 12.5433 17.5658C12.3424 17.3636 12.0699 17.25 11.7857 17.25H8.21429C7.93013 17.25 7.6576 17.3636 7.45667 17.5658C7.25574 17.768 7.14286 18.0422 7.14286 18.3281V21.9219C7.14286 22.2078 7.02997 22.482 6.82904 22.6842C6.62811 22.8864 6.35559 23 6.07143 23H1.07143C0.787268 23 0.514746 22.8864 0.313814 22.6842C0.112882 22.482 0 22.2078 0 21.9219C0 21.6359 0.112882 21.3617 0.313814 21.1595C0.514746 20.9573 0.787268 20.8438 1.07143 20.8438H1.42857ZM5.71429 5.03125C5.71429 4.84063 5.78954 4.65781 5.9235 4.52302C6.05745 4.38823 6.23913 4.3125 6.42857 4.3125H7.85714C8.04658 4.3125 8.22827 4.38823 8.36222 4.52302C8.49617 4.65781 8.57143 4.84063 8.57143 5.03125V6.46875C8.57143 6.65937 8.49617 6.84219 8.36222 6.97698C8.22827 7.11177 8.04658 7.1875 7.85714 7.1875H6.42857C6.23913 7.1875 6.05745 7.11177 5.9235 6.97698C5.78954 6.84219 5.71429 6.65937 5.71429 6.46875V5.03125ZM6.42857 10.0625C6.23913 10.0625 6.05745 10.1382 5.9235 10.273C5.78954 10.4078 5.71429 10.5906 5.71429 10.7812V12.2188C5.71429 12.4094 5.78954 12.5922 5.9235 12.727C6.05745 12.8618 6.23913 12.9375 6.42857 12.9375H7.85714C8.04658 12.9375 8.22827 12.8618 8.36222 12.727C8.49617 12.5922 8.57143 12.4094 8.57143 12.2188V10.7812C8.57143 10.5906 8.49617 10.4078 8.36222 10.273C8.22827 10.1382 8.04658 10.0625 7.85714 10.0625H6.42857ZM11.4286 5.03125C11.4286 4.84063 11.5038 4.65781 11.6378 4.52302C11.7717 4.38823 11.9534 4.3125 12.1429 4.3125H13.5714C13.7609 4.3125 13.9426 4.38823 14.0765 4.52302C14.2105 4.65781 14.2857 4.84063 14.2857 5.03125V6.46875C14.2857 6.65937 14.2105 6.84219 14.0765 6.97698C13.9426 7.11177 13.7609 7.1875 13.5714 7.1875H12.1429C11.9534 7.1875 11.7717 7.11177 11.6378 6.97698C11.5038 6.84219 11.4286 6.65937 11.4286 6.46875V5.03125ZM12.1429 10.0625C11.9534 10.0625 11.7717 10.1382 11.6378 10.273C11.5038 10.4078 11.4286 10.5906 11.4286 10.7812V12.2188C11.4286 12.4094 11.5038 12.5922 11.6378 12.727C11.7717 12.8618 11.9534 12.9375 12.1429 12.9375H13.5714C13.7609 12.9375 13.9426 12.8618 14.0765 12.727C14.2105 12.5922 14.2857 12.4094 14.2857 12.2188V10.7812C14.2857 10.5906 14.2105 10.4078 14.0765 10.273C13.9426 10.1382 13.7609 10.0625 13.5714 10.0625H12.1429Z" fill="rgba(66, 74, 157, 1)"/>
</svg>
