<svg width="20" height="19" viewBox="0 0 20 19" fill="none" xmlns="http://www.w3.org/2000/svg">
<path d="M12.6545 14.0629L9.28391 16.8912C8.11824 17.8693 6.77995 18.292 5.26902 18.1593C3.758 18.0276 2.51344 17.3789 1.53533 16.2132C0.557224 15.0476 0.134288 13.709 0.266526 12.1975C0.398674 10.6871 1.04758 9.44278 2.21324 8.46467L5.58384 5.6364L6.99797 7.3217L3.62738 10.15C2.92517 10.7392 2.53452 11.4858 2.45543 12.3898C2.37634 13.2938 2.63141 14.0969 3.22063 14.7991C3.80985 15.5013 4.55646 15.892 5.46046 15.9711C6.36446 16.0501 7.16757 15.7951 7.86978 15.2059L11.2404 12.3776L12.6545 14.0629ZM7.29829 12.8135L5.88416 11.1282L12.6254 5.47167L14.0395 7.15696L7.29829 12.8135ZM14.3398 12.6488L12.9257 10.9635L16.2963 8.1352C16.9985 7.54597 17.3891 6.79936 17.4682 5.89536C17.5473 4.99136 17.2922 4.18826 16.703 3.48605C16.1138 2.78384 15.3672 2.39319 14.4632 2.3141C13.5592 2.23501 12.7561 2.49008 12.0539 3.0793L8.68327 5.90757L7.26914 4.22227L10.6397 1.394C11.8054 0.415895 13.1437 -0.00732074 14.6548 0.124356C16.1657 0.257065 17.4102 0.906252 18.3883 2.07192C19.3664 3.23758 19.7894 4.57564 19.6573 6.0861C19.525 7.59759 18.8761 8.84238 17.7104 9.82049L14.3398 12.6488Z" fill="rgba(66, 74, 157, 1)"/>
</svg>
