<svg width="17" height="16" viewBox="0 0 17 16" fill="none" xmlns="http://www.w3.org/2000/svg">
<path d="M10.99 12.2581L8.23229 14.5722C7.27856 15.3724 6.18359 15.7183 4.94738 15.6097C3.71109 15.502 2.69281 14.9712 1.89254 14.0175C1.09227 13.0638 0.746236 11.9686 0.854431 10.7319C0.962551 9.49609 1.49347 8.47804 2.4472 7.67777L5.20496 5.36373L6.36198 6.74261L3.60422 9.05665C3.02968 9.53874 2.71006 10.1496 2.64535 10.8892C2.58064 11.6289 2.78933 12.286 3.27142 12.8605C3.75352 13.435 4.36438 13.7546 5.10402 13.8194C5.84365 13.8841 6.50074 13.6754 7.07527 13.1933L9.83303 10.8793L10.99 12.2581ZM6.60769 11.2359L5.45068 9.85702L10.9662 5.22895L12.1232 6.60783L6.60769 11.2359ZM12.3689 11.1011L11.2119 9.72223L13.9697 7.4082C14.5442 6.92611 14.8638 6.31524 14.9285 5.57561C14.9932 4.83597 14.7846 4.17889 14.3025 3.60435C13.8204 3.02982 13.2095 2.7102 12.4699 2.64549C11.7302 2.58078 11.0732 2.78947 10.4986 3.27156L7.74086 5.5856L6.58384 4.20672L9.3416 1.89268C10.2953 1.09241 11.3903 0.746141 12.6266 0.853876C13.8628 0.962457 14.8811 1.49361 15.6813 2.44734C16.4816 3.40106 16.8277 4.49584 16.7196 5.73166C16.6114 6.96834 16.0804 7.98681 15.1267 8.78708L12.3689 11.1011Z" fill="rgba(66, 74, 157, 1)"/>
</svg>
