<svg width="18" height="19" viewBox="0 0 18 19" fill="none" xmlns="http://www.w3.org/2000/svg">
<path d="M15.0415 18.0013H5.83737C5.05273 18.0013 4.30024 17.6896 3.74542 17.1348C3.1906 16.5799 2.87891 15.8274 2.87891 15.0428V5.83871C2.87891 5.05408 3.1906 4.30158 3.74542 3.74676C4.30024 3.19194 5.05273 2.88025 5.83737 2.88025H15.0415C15.8261 2.88025 16.5786 3.19194 17.1334 3.74676C17.6882 4.30158 17.9999 5.05408 17.9999 5.83871V15.0428C17.9999 15.8274 17.6882 16.5799 17.1334 17.1348C16.5786 17.6896 15.8261 18.0013 15.0415 18.0013Z" fill="rgba(66, 74, 157, 1)"/>
<path d="M5.06575 1.89965H14.401C14.204 1.3445 13.84 0.863897 13.359 0.523785C12.878 0.183673 12.3036 0.000711186 11.7145 0H2.84948C2.09375 0 1.36898 0.300212 0.834594 0.834594C0.300212 1.36898 0 2.09375 0 2.84948V11.7145C0.000711186 12.3036 0.183673 12.878 0.523785 13.359C0.863897 13.84 1.3445 14.204 1.89965 14.401V5.06575C1.89965 4.22605 2.23322 3.42074 2.82698 2.82698C3.42074 2.23322 4.22605 1.89965 5.06575 1.89965Z" fill="rgba(66, 74, 157, 1)"/>
</svg>
