<svg width="20" height="20" viewBox="0 0 20 20" fill="none" xmlns="http://www.w3.org/2000/svg">
<path d="M17.1624 5.5L16.2527 4.47626C15.4813 3.69257 14.5532 3.0689 13.5247 2.6432C12.4963 2.2175 11.3891 1.99866 10.2704 2.00001C5.70446 2.00001 2 5.58334 2 10C2 14.4167 5.70446 18 10.2704 18C11.9809 17.9999 13.6494 17.487 15.0461 16.5319C16.4429 15.5768 17.4993 14.2264 18.07 12.6667" stroke="rgba(66, 74, 157, 1)" stroke-width="3" stroke-miterlimit="10" stroke-linecap="round"/>
<path d="M19.9991 3.39251V8.00001C19.9991 8.17682 19.9312 8.34639 19.8105 8.47141C19.6897 8.59643 19.526 8.66667 19.3552 8.66667H14.9052C14.3313 8.66667 14.044 7.94876 14.4496 7.52876L18.9 2.92084C19.3057 2.50001 19.9991 2.79834 19.9991 3.39251Z" fill="rgba(66, 74, 157, 1)"/>
</svg>
