<svg width="40" height="41" viewBox="0 0 40 41" fill="none" xmlns="http://www.w3.org/2000/svg">
<path d="M33.4263 40.0029H12.9728C11.2292 40.0029 9.55695 39.3102 8.32402 38.0773C7.09109 36.8444 6.39844 35.1722 6.39844 33.4285V12.975C6.39844 11.2314 7.09109 9.55915 8.32402 8.32622C9.55695 7.09329 11.2292 6.40063 12.9728 6.40063H33.4263C35.17 6.40063 36.8422 7.09329 38.0751 8.32622C39.308 9.55915 40.0007 11.2314 40.0007 12.975V33.4285C40.0007 35.1722 39.308 36.8444 38.0751 38.0773C36.8422 39.3102 35.17 40.0029 33.4263 40.0029Z" fill="rgba(66, 74, 157, 1)"/>
<path d="M11.2572 4.22146H32.0021C31.5643 2.98777 30.7555 1.91977 29.6867 1.16397C28.6179 0.408162 27.3414 0.00158041 26.0323 0H6.33218C4.65278 0 3.04217 0.667139 1.85465 1.85465C0.667139 3.04217 0 4.65278 0 6.33218V26.0323C0.00158041 27.3414 0.408162 28.6179 1.16397 29.6867C1.91977 30.7555 2.98777 31.5643 4.22146 32.0021V11.2572C4.22146 9.39121 4.96272 7.60164 6.28218 6.28218C7.60164 4.96272 9.39121 4.22146 11.2572 4.22146Z" fill="rgba(66, 74, 157, 1)"/>
</svg>
