<svg width="43" height="42" viewBox="0 0 43 42" fill="none" xmlns="http://www.w3.org/2000/svg">
<path d="M36.6948 10.875L34.6731 8.57157C32.9589 6.80829 30.8964 5.40503 28.6109 4.4472C26.3254 3.48936 23.8649 2.99698 21.379 3.00001C11.2322 3.00001 3 11.0625 3 21C3 30.9375 11.2322 39 21.379 39C25.1802 38.9997 28.8879 37.8457 31.9918 35.6968C35.0958 33.5478 37.4434 30.5095 38.7117 27" stroke="rgba(66, 74, 157, 1)" stroke-width="5" stroke-miterlimit="10" stroke-linecap="round"/>
<path d="M43.0003 6.13308V16.5C43.0003 16.8978 42.8495 17.2793 42.5812 17.5606C42.3128 17.8419 41.9489 18 41.5694 18H31.6804C30.4051 18 29.7666 16.3846 30.668 15.4396L40.558 5.07183C41.4594 4.12496 43.0003 4.7962 43.0003 6.13308Z" fill="rgba(66, 74, 157, 1)"/>
</svg>
