<svg width="36" height="33" viewBox="0 0 36 33" fill="none" xmlns="http://www.w3.org/2000/svg">
<path d="M22.6446 25.4623L16.5162 30.6046C14.3968 32.3829 11.9635 33.1515 9.2164 32.9102C6.4691 32.6708 4.20626 31.4914 2.42788 29.372C0.649497 27.2526 -0.119476 24.8188 0.120957 22.0707C0.361226 19.3244 1.54105 17.0621 3.66044 15.2837L9.7888 10.1414L12.36 13.2055L6.23159 18.3478C4.95485 19.4192 4.24458 20.7766 4.10078 22.4203C3.95698 24.0639 4.42074 25.5241 5.49205 26.8008C6.56337 28.0776 7.92084 28.7879 9.56448 28.9317C11.2081 29.0755 12.6683 28.6117 13.945 27.5404L20.0734 22.3981L22.6446 25.4623ZM12.906 23.1906L10.3348 20.1265L22.5915 9.84185L25.1627 12.906L12.906 23.1906ZM25.7087 22.8911L23.1376 19.8269L29.2659 14.6846C30.5427 13.6133 31.2529 12.2558 31.3967 10.6122C31.5405 8.96857 31.0768 7.50838 30.0055 6.23164C28.9342 4.9549 27.5767 4.24463 25.9331 4.10083C24.2894 3.95703 22.8292 4.42078 21.5525 5.4921L15.4241 10.6344L12.853 7.57022L18.9813 2.42792C21.1007 0.64954 23.5341 -0.119943 26.2814 0.119467C29.0285 0.360757 31.2913 1.5411 33.0697 3.66049C34.848 5.77988 35.6171 8.21271 35.3768 10.959C35.1364 13.7072 33.9565 15.9704 31.8371 17.7488L25.7087 22.8911Z" fill="rgba(66, 74, 157, 1)"/>
</svg>
