<svg width="20" height="20" viewBox="0 0 20 20" fill="none" xmlns="http://www.w3.org/2000/svg">
<path d="M2 20C1.45 20 0.979333 19.794 0.588 19.3821C0.196 18.9695 0 18.4737 0 17.8947V6.31579C0 5.73684 0.196 5.2414 0.588 4.82947C0.979333 4.41684 1.45 4.21053 2 4.21053H6V2.10526C6 1.52632 6.196 1.03053 6.588 0.617895C6.97933 0.205965 7.45 0 8 0H12C12.55 0 13.021 0.205965 13.413 0.617895C13.8043 1.03053 14 1.52632 14 2.10526V4.21053H18C18.55 4.21053 19.021 4.41684 19.413 4.82947C19.8043 5.2414 20 5.73684 20 6.31579V17.8947C20 18.4737 19.8043 18.9695 19.413 19.3821C19.021 19.794 18.55 20 18 20H2ZM8 4.21053H12V2.10526H8V4.21053Z" fill="rgba(66, 74, 157, 1)"/>
</svg>
