<svg width="56" height="56" viewBox="0 0 56 56" fill="none" xmlns="http://www.w3.org/2000/svg">
<path opacity="0.7" d="M23.0588 0C19.5642 0 16.2127 1.38823 13.7417 3.8593C11.2706 6.33037 9.88235 9.68185 9.88235 13.1765C9.88235 16.6711 11.2706 20.0226 13.7417 22.4936C16.2127 24.9647 19.5642 26.3529 23.0588 26.3529C26.5534 26.3529 29.9049 24.9647 32.376 22.4936C34.8471 20.0226 36.2353 16.6711 36.2353 13.1765C36.2353 9.68185 34.8471 6.33037 32.376 3.8593C29.9049 1.38823 26.5534 0 23.0588 0ZM6.61788 29.6471C5.75033 29.6436 4.89063 29.8114 4.08808 30.1409C3.28553 30.4704 2.55592 30.9551 1.94109 31.5672C1.32626 32.1792 0.838303 32.9067 0.505207 33.7077C0.172111 34.5088 0.000426628 35.3677 0 36.2353C0 41.8056 2.744 46.0056 7.03294 48.7431C11.256 51.4344 16.9482 52.7059 23.0588 52.7059C24.4094 52.7059 25.7468 52.6433 27.0447 52.5181C24.4586 49.3044 23.0518 45.3015 23.0588 41.1765C23.0588 36.7953 24.6136 32.7765 27.1995 29.6471H6.62118H6.61788ZM39.1176 34.5882C39.1176 34.0422 39.3346 33.5185 39.7207 33.1324C40.1068 32.7463 40.6304 32.5294 41.1765 32.5294C41.7225 32.5294 42.2462 32.7463 42.6323 33.1324C43.0184 33.5185 43.2353 34.0422 43.2353 34.5882C43.2353 35.1343 43.0184 35.6579 42.6323 36.044C42.2462 36.4301 41.7225 36.6471 41.1765 36.6471C40.6304 36.6471 40.1068 36.4301 39.7207 36.044C39.3346 35.6579 39.1176 35.1343 39.1176 34.5882ZM42.8235 47.7647C42.8235 48.2015 42.65 48.6205 42.3411 48.9294C42.0322 49.2382 41.6133 49.4118 41.1765 49.4118C40.7396 49.4118 40.3207 49.2382 40.0118 48.9294C39.7029 48.6205 39.5294 48.2015 39.5294 47.7647V41.1765C39.5294 40.7396 39.7029 40.3207 40.0118 40.0118C40.3207 39.7029 40.7396 39.5294 41.1765 39.5294C41.6133 39.5294 42.0322 39.7029 42.3411 40.0118C42.65 40.3207 42.8235 40.7396 42.8235 41.1765V47.7647ZM26.3529 41.1765C26.3529 37.245 27.9147 33.4746 30.6947 30.6947C33.4746 27.9147 37.245 26.3529 41.1765 26.3529C45.1079 26.3529 48.8783 27.9147 51.6583 30.6947C54.4382 33.4746 56 37.245 56 41.1765C56 45.1079 54.4382 48.8783 51.6583 51.6583C48.8783 54.4382 45.1079 56 41.1765 56C37.245 56 33.4746 54.4382 30.6947 51.6583C27.9147 48.8783 26.3529 45.1079 26.3529 41.1765ZM29.6471 41.1765C29.6471 42.6905 29.9453 44.1898 30.5247 45.5886C31.1041 46.9874 31.9533 48.2584 33.0239 49.329C34.0946 50.3996 35.3655 51.2488 36.7644 51.8283C38.1632 52.4077 39.6624 52.7059 41.1765 52.7059C42.6905 52.7059 44.1898 52.4077 45.5886 51.8283C46.9874 51.2488 48.2584 50.3996 49.329 49.329C50.3996 48.2584 51.2488 46.9874 51.8283 45.5886C52.4077 44.1898 52.7059 42.6905 52.7059 41.1765C52.7059 38.1187 51.4912 35.1861 49.329 33.0239C47.1668 30.8618 44.2343 29.6471 41.1765 29.6471C38.1187 29.6471 35.1861 30.8618 33.0239 33.0239C30.8618 35.1861 29.6471 38.1187 29.6471 41.1765Z" fill="white"/>
</svg>
