<svg width="24" height="24" viewBox="0 0 24 24" fill="none" xmlns="http://www.w3.org/2000/svg">
<path d="M20.5328 6.37501L19.4209 5.09532C18.478 4.11572 17.3436 3.33613 16.0865 2.804C14.8295 2.27187 13.4761 1.99832 12.1088 2.00001C6.52791 2.00001 2 6.47917 2 12C2 17.5208 6.52791 22 12.1088 22C14.1996 21.9999 16.2389 21.3587 17.9461 20.1649C19.6534 18.971 20.9446 17.2831 21.6422 15.3333" stroke="rgba(66, 74, 157, 1)" stroke-width="3" stroke-miterlimit="10" stroke-linecap="round"/>
<path d="M23.9994 3.74062V9.49999C23.9994 9.72101 23.9165 9.93297 23.7689 10.0892C23.6213 10.2455 23.4212 10.3333 23.2124 10.3333H17.7733C17.0718 10.3333 16.7206 9.43593 17.2165 8.91093L22.6561 3.15104C23.1519 2.62499 23.9994 2.99791 23.9994 3.74062Z" fill="rgba(66, 74, 157, 1)"/>
</svg>
